# xmcd
# Copyright (C) 1995-1998 Ti Kan
#
# Track frame offsets:
#       150
#       13530
#       24555
#       36747
#       49847
#       79240
#       96560
#       112530
#       131707
#       146585
#       157250
#
# Disc length: 2272 seconds
#
# Revision: 0
# Processed by: cddbd v1.5.2PL0 Copyright (c) Steve Scherf et al.
# Submitted via: CD-Import v1.0
#
DISCID=9708de0b
DTITLE=Reverend Gary Davis - The Guitar and Banjo Of Reverend Gary Davis
DYEAR=2000
DGENRE=
TTITLE0=Maple Leaf Rag
TTITLE1=Low Drag Aka Cincinnati Flow Rag
TTITLE2=The Boy Was Kissing The Girl (And Playing The Guitar At The Same Time)
TTITLE3=Candy Man
TTITLE4=United States March Aka Soldier's Drill
TTITLE5=Devil's Dream
TTITLE6=The Coon Hunt
TTITLE7=Mister Jim Aka Walkin' Dog Blues
TTITLE8=Please Baby
TTITLE9=Fast Fox Trot Aka Buck Rag
TTITLE10=Can't Be Satisfied
EXTD=
EXTT0=
EXTT1=
EXTT2=
EXTT3=
EXTT4=
EXTT5=
EXTT6=
EXTT7=
EXTT8=
EXTT9=
EXTT10=
PLAYORDER=
